# File created by Blade
# Date/Time:  Wed Jan 21 19:19:27 2015
#---------------------------------------------------------
:version 1.10
:name HOM
:units
  mass 1.0
  length 1.000000
  angle deg
:documentation
     Acclaim Skeleton File
:root
   axis xyz
   order TX TY TZ RX RY RZ
   position 0.000000 0.000000 0.000000
   orientation 0 0 0
:bonedata
   begin
      id 1
      name RightUpLeg_dum
      direction -1.000000 0.000000 0.000000
      length 3.693983
      axis 0.0 0.0 0.0 xyz
   end
   begin
      id 2
      name LeftUpLeg_dum
      direction 1.000000 0.000000 0.000000
      length 3.693983
      axis 0.0 0.0 0.0 xyz
   end
   begin
      id 3
      name Spine_dum
      direction 0.000000 1.000000 0.000000
      length 2.392956
      axis 0.0 0.0 0.0 xyz
   end
   begin
      id 4
      name RightUpLeg
      direction 0.000000 -1.000000 0.000000
      length 15.795667
      axis 0.0 0.0 0.0 xyz
      dof rx ry rz
   end
   begin
      id 5
      name RightLeg
      direction 0.000000 -1.000000 0.000000
      length 14.766989
      axis 0.0 0.0 0.0 xyz
      dof rx ry rz
   end
   begin
      id 6
      name RightFoot
      direction 0.000000 -0.258819 0.965926
      length 4.962790
      axis 15.0 0.0 0.0 xyz
      dof rx ry rz
   end
   begin
      id 7
      name RightToeBase
      direction 0.000000 0.000000 1.000000
      length 2.952750
      axis 0.0 0.0 0.0 xyz
      dof rx ry rz
   end
   begin
      id 8
      name LeftUpLeg
      direction 0.000000 -1.000000 0.000000
      length 15.795667
      axis 0.0 0.0 0.0 xyz
      dof rx ry rz
   end
   begin
      id 9
      name LeftLeg
      direction 0.000000 -1.000000 0.000000
      length 14.766989
      axis 0.0 0.0 0.0 xyz
      dof rx ry rz
   end
   begin
      id 10
      name LeftFoot
      direction 0.000000 -0.258819 0.965926
      length 4.962790
      axis 15.0 0.0 0.0 xyz
      dof rx ry rz
   end
   begin
      id 11
      name LeftToeBase
      direction 0.000000 0.000000 1.000000
      length 2.952750
      axis 0.0 0.0 0.0 xyz
      dof rx ry rz
   end
   begin
      id 12
      name Spine
      direction 0.000000 1.000000 0.000000
      length 0.000000
      axis 0.0 0.0 0.0 xyz
      dof rx ry rz
   end
   begin
      id 13
      name Spine_dum1
      direction 0.000000 1.000000 0.000000
      length 13.207411
      axis 0.0 0.0 0.0 xyz
   end
   begin
      id 14
      name Spine_dum2
      direction 0.000000 1.000000 0.000000
      length 13.207411
      axis 0.0 0.0 0.0 xyz
   end
   begin
      id 15
      name Spine_dum3
      direction 0.000000 1.000000 0.000000
      length 19.250100
      axis 0.0 0.0 0.0 xyz
   end
   begin
      id 16
      name RightShoulder
      direction -1.000000 0.000000 0.000000
      length 8.140465
      axis 0.0 0.0 90.0 xyz
      dof rx ry rz
   end
   begin
      id 17
      name RightArm
      direction -1.000000 0.000000 0.000000
      length 10.649840
      axis 0.0 0.0 90.0 xyz
      dof rx ry rz
   end
   begin
      id 18
      name RightForeArm
      direction -1.000000 0.000000 0.000000
      length 8.304624
      axis 0.0 0.0 90.0 xyz
      dof ry rz rx
   end
   begin
      id 19
      name RightHand
      direction -1.000000 0.000000 0.000000
      length 0.000000
      axis 0.0 0.0 90.0 xyz
      dof rx ry rz
   end
   begin
      id 20
      name RightHand_dum1
      direction -1.000000 0.000000 0.000000
      length 3.937000
      axis 0.0 0.0 90.0 xyz
   end
   begin
      id 21
      name RightHand_dum2
      direction 0.000000 0.000000 0.000000
      length 0.000000
      axis 0.0 0.0 90.0 xyz
   end
   begin
      id 22
      name RightHandThumb1
      direction 0.000000 0.000000 1.000000
      length 3.937000
      axis 0.0 0.0 90.0 xyz
      dof rx rz ry
   end
   begin
      id 23
      name LeftShoulder
      direction 1.000000 0.000000 0.000000
      length 8.140465
      axis 0.0 0.0 -90.0 xyz
      dof rx ry rz
   end
   begin
      id 24
      name LeftArm
      direction 1.000000 0.000000 0.000000
      length 10.649840
      axis 0.0 0.0 -90.0 xyz
      dof rx ry rz
   end
   begin
      id 25
      name LeftForeArm
      direction 1.000000 0.000000 0.000000
      length 8.304624
      axis 0.0 0.0 -90.0 xyz
      dof ry rz rx
   end
   begin
      id 26
      name LeftHand
      direction 1.000000 0.000000 0.000000
      length 0.000000
      axis 0.0 0.0 -90.0 xyz
      dof rx ry rz
   end
   begin
      id 27
      name LeftHand_dum1
      direction 1.000000 0.000000 0.000000
      length 3.937000
      axis 0.0 0.0 -90.0 xyz
   end
   begin
      id 28
      name LeftHand_dum2
      direction 0.000000 0.000000 0.000000
      length 0.000000
      axis 0.0 0.0 -90.0 xyz
   end
   begin
      id 29
      name LeftHandThumb1
      direction 0.000000 0.000000 1.000000
      length 3.937000
      axis 0.0 0.0 -90.0 xyz
      dof rx rz ry
   end
   begin
      id 30
      name Head
      direction 0.000000 1.000000 0.000000
      length 4.527550
      axis 0.0 0.0 0.0 xyz
      dof rx ry rz
   end
:hierarchy
   begin
      root RightUpLeg_dum LeftUpLeg_dum Spine_dum
      RightUpLeg_dum RightUpLeg
      LeftUpLeg_dum LeftUpLeg
      Spine_dum Spine
      RightUpLeg RightLeg
      RightLeg RightFoot
      RightFoot RightToeBase
      LeftUpLeg LeftLeg
      LeftLeg LeftFoot
      LeftFoot LeftToeBase
      Spine Spine_dum1 Spine_dum2 Spine_dum3
      Spine_dum1 RightShoulder
      Spine_dum2 LeftShoulder
      Spine_dum3 Head
      RightShoulder RightArm
      RightArm RightForeArm
      RightForeArm RightHand
      RightHand RightHand_dum1 RightHand_dum2
      RightHand_dum2 RightHandThumb1
      LeftShoulder LeftArm
      LeftArm LeftForeArm
      LeftForeArm LeftHand
      LeftHand LeftHand_dum1 LeftHand_dum2
      LeftHand_dum2 LeftHandThumb1
   end

# File created by Blade
# Date/Time:  Wed Jan 21 19:19:18 2015
# Frame Rate: 120.000 fps
#------------------------------------------------------
:FULLY-SPECIFIED
:DEGREES
652
root -1.681677 14.150471 -2.141965 42.821763 -16.272915 22.249694
RightUpLeg -165.564215 -63.668791 25.579520
RightLeg 109.455220 -0.000000 -0.000000
RightFoot -16.244612 21.028742 20.314079
RightToeBase 22.399083 -0.000000 -0.000000
LeftUpLeg -28.297319 24.835060 28.863737
LeftLeg 15.375208 -0.000000 -0.000000
LeftFoot -28.523543 6.700804 -17.461709
LeftToeBase 7.180334 -0.000000 -0.000000
Spine -37.001543 11.682487 34.490858
RightShoulder -16.955725 18.488047 -17.408698
RightArm -11.500759 -9.127092 52.117997
RightForeArm -25.038053 -0.000000 48.893218
RightHand 37.756586 0.000000 -56.498918
RightHandThumb1 -24.326973 -0.000000 -32.862282
LeftShoulder -21.729394 -24.564687 71.540136
LeftArm 77.986661 -44.919336 -18.732339
LeftForeArm 13.059790 -0.000000 16.038118
LeftHand -19.249423 -0.000000 13.694838
LeftHandThumb1 -26.253704 0.000000 33.147579
Head -55.571389 9.340609 48.223885
653
root -1.674572 14.164305 -2.147717 42.876655 -16.346946 22.218528
RightUpLeg -165.687439 -63.528870 25.727294
RightLeg 109.371085 -0.000000 -0.000000
RightFoot -16.124350 21.084541 20.334871
RightToeBase 22.327487 -0.000000 -0.000000
LeftUpLeg -28.315718 24.779515 28.871023
LeftLeg 15.428906 -0.000000 -0.000000
LeftFoot -28.577531 6.803074 -17.502774
LeftToeBase 7.193516 -0.000000 -0.000000
Spine -36.955232 11.683339 34.483366
RightShoulder -16.874866 18.531216 -17.440992
RightArm -11.361851 -9.345632 52.172327
RightForeArm -24.865433 -0.000000 48.483526
RightHand 37.728445 -0.000000 -56.938580
RightHandThumb1 -24.326973 -0.000000 -32.862282
LeftShoulder -21.718896 -24.616163 71.547486
LeftArm 78.049504 -44.812146 -18.745103
LeftForeArm 13.093565 -0.000000 16.052988
LeftHand -19.248915 -0.000000 13.642940
LeftHandThumb1 -26.253704 0.000000 33.147579
Head -55.533418 9.279288 48.213640
654
root -1.664399 14.179625 -2.154250 42.939927 -16.446374 22.220374
RightUpLeg -165.872098 -63.370076 25.897914
RightLeg 109.269657 -0.000000 -0.000000
RightFoot -16.016667 21.120255 20.335784
RightToeBase 22.335412 -0.000000 -0.000000
LeftUpLeg -28.370112 24.760540 28.804549
LeftLeg 15.497277 -0.000000 -0.000000
LeftFoot -28.624696 6.904715 -17.494877
LeftToeBase 7.208790 -0.000000 -0.000000
Spine -36.914586 11.657394 34.448995
RightShoulder -16.754104 18.617846 -17.458378
RightArm -11.242878 -9.586262 52.207967
RightForeArm -24.680053 -0.000000 48.063835
RightHand 37.832324 -0.000000 -57.259689
RightHandThumb1 -24.326973 -0.000000 -32.862282
LeftShoulder -21.711270 -24.614005 71.569216
LeftArm 78.022630 -44.724606 -18.668194
LeftForeArm 13.107231 -0.000000 16.054537
LeftHand -19.247057 -0.000000 13.702095
LeftHandThumb1 -26.253704 0.000000 33.147579
Head -55.472189 9.246260 48.189938
655
root -1.653014 14.197089 -2.159660 42.992501 -16.567989 22.221530
RightUpLeg -166.029134 -63.185487 26.041206
RightLeg 109.163230 -0.000000 -0.000000
RightFoot -15.928155 21.125785 20.271875
RightToeBase 22.249349 -0.000000 -0.000000
LeftUpLeg -28.393409 24.755266 28.722248
LeftLeg 15.533535 -0.000000 -0.000000
LeftFoot -28.663794 7.012427 -17.479821
LeftToeBase 7.188093 -0.000000 -0.000000
Spine -36.862950 11.629207 34.401723
RightShoulder -16.597152 18.781808 -17.427570
RightArm -11.277030 -10.090280 52.184884
RightForeArm -24.385265 -0.000000 47.856057
RightHand 37.258167 0.000000 -57.268225
RightHandThumb1 -24.326973 -0.000000 -32.862282
LeftShoulder -21.668074 -24.578618 71.553436
LeftArm 78.017673 -44.690609 -18.594892
LeftForeArm 13.040673 0.000000 16.023638
LeftHand -19.234513 -0.000000 13.706387
LeftHandThumb1 -26.253704 0.000000 33.147579
Head -55.390473 9.209409 48.221691
